<svg xmlns="http://www.w3.org/2000/svg" version="1.1" xmlns:xlink="http://www.w3.org/1999/xlink" xmlns:svgjs="http://svgjs.dev/svgjs" viewBox="0 0 800 800"><defs><filter id="bbburst-blur-1" x="-100%" y="-100%" width="400%" height="400%"><feGaussianBlur in="SourceGraphic" stdDeviation="1"></feGaussianBlur></filter><filter id="bbburst-blur-2" x="-100%" y="-100%" width="400%" height="400%"><feGaussianBlur in="SourceGraphic" stdDeviation="2"></feGaussianBlur></filter><filter id="bbburst-blur-3" x="-100%" y="-100%" width="400%" height="400%"><feGaussianBlur in="SourceGraphic" stdDeviation="4"></feGaussianBlur></filter><filter id="bbburst-blur-4" x="-100%" y="-100%" width="400%" height="400%"><feGaussianBlur in="SourceGraphic" stdDeviation="12"></feGaussianBlur></filter><symbol id="bbburst-shape-1" viewBox="0 0 194 167"><path d="m97 0 96.129 166.5H.871L97 0Z"></path></symbol><symbol id="bbburst-shape-4" viewBox="0 0 149 143"><path d="M71.647 2.781c.898-2.764 4.808-2.764 5.706 0l15.445 47.534a3 3 0 0 0 2.853 2.073h49.98c2.906 0 4.115 3.719 1.764 5.427L106.96 87.193a2.999 2.999 0 0 0-1.09 3.354l15.445 47.534c.898 2.764-2.266 5.062-4.617 3.354l-40.435-29.378a3 3 0 0 0-3.526 0l-40.435 29.378c-2.351 1.708-5.515-.59-4.617-3.354L43.13 90.547a3 3 0 0 0-1.09-3.354L1.605 57.815c-2.35-1.708-1.142-5.427 1.764-5.427h49.98a3 3 0 0 0 2.853-2.073L71.647 2.781Z"></path></symbol><symbol id="bbburst-shape-6" viewBox="0 0 133 116"><path d="M59.7487 10.2513c-13.6683-13.66839-35.8291-13.66839-49.4974 0-13.66839 13.6683-13.66839 35.8291 0 49.4974l49.4974-49.4974ZM66.5 66.5 41.7513 91.2487 66.5 115.997l24.7487-24.7483L66.5 66.5Zm56.249-6.7513c13.668-13.6683 13.668-35.8291 0-49.4974-13.669-13.66839-35.8294-13.66839-49.4977 0l49.4977 49.4974Zm-112.4977 0 31.5 31.5 49.4974-49.4974-31.5-31.5-49.4974 49.4974Zm80.9974 31.5 31.5003-31.5-49.4977-49.4974-31.5 31.5 49.4974 49.4974Z"></path></symbol><symbol id="bbburst-shape-8" viewBox="0 0 87 168"><path d="m12 12 31.2546 18.0749c16.4102 9.4902 20.014 31.6325 7.4603 45.8369L36.3296 92.1884c-12.5684 14.2206-8.9394 36.3916 7.5068 45.8636L75 156" stroke-width="14" stroke-linecap="round" stroke-linejoin="round"></path></symbol><symbol id="bbburst-shape-10" viewBox="0 0 145 145"><circle cx="72.5" cy="72.5" r="61.5" fill="none" stroke-width="22"></circle></symbol></defs><use xlink:href="#bbburst-shape-4" width="14.37759074579714" opacity="0.9833215311899753" transform="matrix(0.7244061125835558,-0.6893734721118739,0.6893734721118739,0.7244061125835558,121.93603934763689,122.13184784954763)" fill="#2c2891"></use><use xlink:href="#bbburst-shape-6" width="19.425506263989174" opacity="0.8613080024579755" transform="matrix(0.9868281017125637,-0.1617723637410853,0.1617723637410853,0.9868281017125637,355.4469359868162,-48.02938363341127)" fill="#2c2891"></use><use xlink:href="#bbburst-shape-6" width="21.841357719461218" opacity="0.6092720117641564" transform="matrix(0.9743400432319437,-0.2250810524117349,0.2250810524117349,0.9743400432319437,232.9696094514146,175.54736803694652)" fill="#00a19d" filter="url(#bbburst-blur-1)"></use><use xlink:href="#bbburst-shape-1" width="16.926697316178707" opacity="0.6989000908787787" transform="matrix(0.9953045159048154,-0.0967931847780668,0.0967931847780668,0.9953045159048154,233.87621621027625,67.53770196858892)" fill="#ffa6d5" filter="url(#bbburst-blur-1)"></use><use xlink:href="#bbburst-shape-10" width="19.352603144128285" opacity="0.6588225402505667" transform="matrix(0.9896158056151382,0.14373780740188405,-0.14373780740188405,0.9896158056151382,601.1649474437559,-6.574671255264946)" fill="none" stroke="#2c2891" filter="url(#bbburst-blur-1)"></use><use xlink:href="#bbburst-shape-10" width="17.770006407653604" opacity="0.6609758103609102" transform="matrix(0.9181934535017248,0.39613227834471654,-0.39613227834471654,0.9181934535017248,446.6620050007949,141.1631351331202)" fill="none" stroke="#00a19d" filter="url(#bbburst-blur-1)"></use><use xlink:href="#bbburst-shape-6" width="26.45005077009199" opacity="0.6058781503211819" transform="matrix(0.8839463653691886,0.46758830519015443,-0.46758830519015443,0.8839463653691886,616.8975020791753,212.65629716842045)" fill="#ffa6d5" filter="url(#bbburst-blur-1)"></use><use xlink:href="#bbburst-shape-10" width="37.847605145924064" opacity="0.1605003316027348" transform="matrix(1.2449667952791657,-0.11206104877397872,0.11206104877397872,1.2449667952791657,22.662251761636185,121.53071674608532)" fill="none" stroke="#00a19d" filter="url(#bbburst-blur-3)"></use><use xlink:href="#bbburst-shape-10" width="37.68918580503028" opacity="0.36654894379678893" transform="matrix(0.7262700978800857,-0.6874094448909258,0.6874094448909258,0.7262700978800857,-71.7011680087661,340.95788826177363)" fill="none" stroke="#ff5c58" filter="url(#bbburst-blur-2)"></use><use xlink:href="#bbburst-shape-6" width="38.70058925458655" opacity="0.17648689728084366" transform="matrix(1.1815315030081643,-0.4080236603424708,0.4080236603424708,1.1815315030081643,475.9663185118069,197.3252428399985)" fill="#00a19d" filter="url(#bbburst-blur-3)"></use><use xlink:href="#bbburst-shape-10" width="43.035016844100326" opacity="-0.079557714798147" transform="matrix(1.5792641316035003,0.7539395218654098,-0.7539395218654098,1.5792641316035003,1012.0127333897699,94.67662340090567)" fill="none" stroke="#2c2891" filter="url(#bbburst-blur-4)"></use><use xlink:href="#bbburst-shape-8" width="15.400555081049713" opacity="0.9411966492730831" transform="matrix(0.8391674558172716,0.5438731295965701,-0.5438731295965701,0.8391674558172716,619.6309262552674,35.10068177865065)" fill="none" stroke="#2c2891"></use><use xlink:href="#bbburst-shape-6" width="53.32125448055382" opacity="-0.07585958748551791" transform="matrix(1.7439657260179051,0.1452017440488973,-0.1452017440488973,1.7439657260179051,751.9943432464864,-645.7095188205503)" fill="#2c2891" filter="url(#bbburst-blur-4)"></use><use xlink:href="#bbburst-shape-4" width="14.875321950576321" opacity="0.8876856185928146" transform="matrix(0.8812872176898773,0.4725810406019636,-0.4725810406019636,0.8812872176898773,563.967240053976,-3.0502250638996884)" fill="#ff5c58"></use><use xlink:href="#bbburst-shape-10" width="27.044664589474703" opacity="0.17949300509962485" transform="matrix(1.233487635275871,0.2025049471532479,-0.2025049471532479,1.233487635275871,522.9499110336461,268.4104780658085)" fill="none" stroke="#2c2891" filter="url(#bbburst-blur-3)"></use><use xlink:href="#bbburst-shape-10" width="11.787917165724364" opacity="0.9226042942887335" transform="matrix(0.9568384214312702,-0.29062043161642115,0.29062043161642115,0.9568384214312702,255.81776055560573,45.73476948218445)" fill="none" stroke="#ffbd9b"></use><use xlink:href="#bbburst-shape-4" width="30.061663109498365" opacity="0.3602101905532147" transform="matrix(0.9959209087377607,-0.09023050226477106,0.09023050226477106,0.9959209087377607,388.99026384137244,288.121276790796)" fill="#ffa6d5" filter="url(#bbburst-blur-2)"></use><use xlink:href="#bbburst-shape-10" width="28.672765384247125" opacity="0.15134908887688092" transform="matrix(0.9378399525022674,0.8264116549822763,-0.8264116549822763,0.9378399525022674,598.2138500294412,375.9262507044538)" fill="none" stroke="#00a19d" filter="url(#bbburst-blur-3)"></use><use xlink:href="#bbburst-shape-8" width="35.308884744020155" opacity="0.17803944826866935" transform="matrix(1.0756073504524406,0.6368428594658816,-0.6368428594658816,1.0756073504524406,270.0505028808632,13.996323830997937)" fill="none" stroke="#2c2891" filter="url(#bbburst-blur-3)"></use><use xlink:href="#bbburst-shape-4" width="18.307043966858032" opacity="0.6511241180252225" transform="matrix(0.9991668606050157,-0.04081157518054364,0.04081157518054364,0.9991668606050157,457.4593233520618,134.02725647169063)" fill="#ff5c58" filter="url(#bbburst-blur-1)"></use><use xlink:href="#bbburst-shape-6" width="15.875168383888031" opacity="0.794893201473096" transform="matrix(0.7302567352708057,0.6831728189789349,-0.6831728189789349,0.7302567352708057,664.726351029539,194.73189304054017)" fill="#ff5c58"></use><use xlink:href="#bbburst-shape-6" width="30.890805797420654" opacity="0.3284924915871319" transform="matrix(1.2141608989320234,0.29717555670778356,-0.29717555670778356,1.2141608989320234,486.3689025054764,-392.1194053801259)" fill="#00a19d" filter="url(#bbburst-blur-3)"></use><use xlink:href="#bbburst-shape-1" width="22.498034509859902" opacity="0.7622154734377353" transform="matrix(0.9983062805959396,-0.05817705838817516,0.05817705838817516,0.9983062805959396,298.55177046232143,-82.11047239272574)" fill="#2c2891" filter="url(#bbburst-blur-1)"></use><use xlink:href="#bbburst-shape-10" width="31.993386330586794" opacity="0.45258433920410956" transform="matrix(0.824801042346294,-0.5654230633291031,0.5654230633291031,0.824801042346294,231.63541437017827,-156.7592200514928)" fill="none" stroke="#ffa6d5" filter="url(#bbburst-blur-2)"></use><use xlink:href="#bbburst-shape-1" width="16.262114174426344" opacity="0.7983245238249334" transform="matrix(0.785957458881834,-0.6182805777541538,0.6182805777541538,0.785957458881834,57.32492222774462,72.83028564440076)" fill="#2c2891"></use><use xlink:href="#bbburst-shape-4" width="40.38747412198291" opacity="0.2617793079273981" transform="matrix(1.2137779204081511,-0.298735936789774,0.298735936789774,1.2137779204081511,-39.92921782403721,-230.36069383518767)" fill="#ff5c58" filter="url(#bbburst-blur-3)"></use><use xlink:href="#bbburst-shape-10" width="45.37232816804616" opacity="0.06538217073520891" transform="matrix(1.663506442413757,-0.5433657295486404,0.5433657295486404,1.663506442413757,-211.74777348266002,-475.9600760802777)" fill="none" stroke="#00a19d" filter="url(#bbburst-blur-4)"></use><use xlink:href="#bbburst-shape-1" width="36.43785655235913" opacity="0.0674163003313083" transform="matrix(1.3805174949464114,-1.0754866090039823,1.0754866090039823,1.3805174949464114,302.3597739805329,86.99545836815457)" fill="#00a19d" filter="url(#bbburst-blur-4)"></use><use xlink:href="#bbburst-shape-6" width="33.06149314018238" opacity="0.29199963536953955" transform="matrix(0.930337981425986,0.8348480342650523,-0.8348480342650523,0.930337981425986,417.48709439264815,118.28221776797966)" fill="#ffbd9b" filter="url(#bbburst-blur-3)"></use><use xlink:href="#bbburst-shape-4" width="21.942189124639896" opacity="0.7080284061328298" transform="matrix(0.9894220855240052,0.14506528419069797,-0.14506528419069797,0.9894220855240052,329.58487617336164,-55.9646626194334)" fill="#00a19d" filter="url(#bbburst-blur-1)"></use><use xlink:href="#bbburst-shape-6" width="38.87926210371788" opacity="0.31606493308844363" transform="matrix(0.9742718432523817,0.7831311355358096,-0.7831311355358096,0.9742718432523817,387.1242573916004,-23.85727027681952)" fill="#2c2891" filter="url(#bbburst-blur-3)"></use><use xlink:href="#bbburst-shape-4" width="34.487096320067714" opacity="0.06821590737620786" transform="matrix(1.636803086567943,0.6191733649000535,-0.6191733649000535,1.636803086567943,977.8961669139728,-482.86391776832204)" fill="#ffa6d5" filter="url(#bbburst-blur-4)"></use><use xlink:href="#bbburst-shape-8" width="27.12559057885275" opacity="0.5863448255451332" transform="matrix(0.7192559240520409,0.6947452164038589,-0.6947452164038589,0.7192559240520409,815.4260830132298,216.70631151312483)" fill="none" stroke="#ff5c58" filter="url(#bbburst-blur-1)"></use><use xlink:href="#bbburst-shape-10" width="26.205049523479325" opacity="0.6199564011355689" transform="matrix(0.892598278357796,-0.45085287342180536,0.45085287342180536,0.892598278357796,91.8616185482048,-76.70289518297773)" fill="none" stroke="#ffa6d5" filter="url(#bbburst-blur-1)"></use><use xlink:href="#bbburst-shape-6" width="30.670049180758575" opacity="0.31886506004475756" transform="matrix(1.06415117918937,-0.6558065780623684,0.6558065780623684,1.06415117918937,426.54379689107964,12.873858864060537)" fill="#00a19d" filter="url(#bbburst-blur-3)"></use><use xlink:href="#bbburst-shape-10" width="51.75887141863441" opacity="-0.07384727005289582" transform="matrix(1.4413531083564561,-0.9924722751952229,0.9924722751952229,1.4413531083564561,-375.60515511535334,-492.9335736805696)" fill="none" stroke="#2c2891" filter="url(#bbburst-blur-4)"></use><use xlink:href="#bbburst-shape-4" width="10.908035960196658" opacity="0.9159820445295361" transform="matrix(0.9148063490747341,0.4038927378556784,-0.4038927378556784,0.9148063490747341,580.043300044897,61.51743528196266)" fill="#ff5c58"></use><use xlink:href="#bbburst-shape-4" width="18.312482487958963" opacity="0.6732792333042584" transform="matrix(0.7837029515384146,0.6211358013751722,-0.6211358013751722,0.7837029515384146,494.4262698377744,73.52288523917855)" fill="#00a19d" filter="url(#bbburst-blur-1)"></use><use xlink:href="#bbburst-shape-10" width="35.69995529928082" opacity="0.3743112150128052" transform="matrix(0.7961440654182134,-0.6051071203509008,0.6051071203509008,0.7961440654182134,86.08971243815273,367.93699136497077)" fill="none" stroke="#ff5c58" filter="url(#bbburst-blur-2)"></use><use xlink:href="#bbburst-shape-1" width="34.47312381882961" opacity="0.17932255646818296" transform="matrix(1.1486008928470044,-0.4931693309108593,0.4931693309108593,1.1486008928470044,545.2821400144085,-122.3451838638527)" fill="#00a19d" filter="url(#bbburst-blur-3)"></use><use xlink:href="#bbburst-shape-10" width="18.911114425822692" opacity="0.7654193481546993" transform="matrix(0.9493856385032233,-0.31411289276918736,0.31411289276918736,0.9493856385032233,334.4170446214242,-56.63888359177986)" fill="none" stroke="#ffa6d5" filter="url(#bbburst-blur-1)"></use><use xlink:href="#bbburst-shape-4" width="16.78746994326599" opacity="0.7310891670855144" transform="matrix(0.7906090665244018,-0.6123212424286896,0.6123212424286896,0.7906090665244018,259.0267784929396,138.05055235726127)" fill="#00a19d" filter="url(#bbburst-blur-1)"></use><use xlink:href="#bbburst-shape-10" width="19.280635297932083" opacity="0.7490260718560369" transform="matrix(0.9986482201321709,-0.051978191838954885,0.051978191838954885,0.9986482201321709,473.8700827596484,-42.304836653588666)" fill="none" stroke="#ff5c58" filter="url(#bbburst-blur-1)"></use><use xlink:href="#bbburst-shape-6" width="27.79494189166692" opacity="0.45225581728446784" transform="matrix(0.9877270433974147,-0.15618990921759873,0.15618990921759873,0.9877270433974147,532.2620561488928,-124.43865298198142)" fill="#2c2891" filter="url(#bbburst-blur-2)"></use><use xlink:href="#bbburst-shape-10" width="28.61620283098126" opacity="0.5365336105460667" transform="matrix(0.9494410567010435,-0.3139453453236819,0.3139453453236819,0.9494410567010435,390.6350525816299,-138.53190975740813)" fill="none" stroke="#ffbd9b" filter="url(#bbburst-blur-2)"></use><use xlink:href="#bbburst-shape-6" width="25.89159808200649" opacity="0.6059697612479524" transform="matrix(0.9525809679274831,-0.30428522728246166,0.30428522728246166,0.9525809679274831,286.4046225330453,-153.2232171336627)" fill="#00a19d" filter="url(#bbburst-blur-1)"></use><use xlink:href="#bbburst-shape-10" width="28.833917477888303" opacity="0.5441099449871732" transform="matrix(0.9784090641558976,-0.20667777620629849,0.20667777620629849,0.9784090641558976,99.22853717357653,-10.13051593649078)" fill="none" stroke="#ff5c58" filter="url(#bbburst-blur-2)"></use><use xlink:href="#bbburst-shape-6" width="48.997569101090896" opacity="-0.07799284101853243" transform="matrix(1.7028478054730518,-0.40349640815701376,0.40349640815701376,1.7028478054730518,-152.57165789900267,65.19856053045078)" fill="#ff5c58" filter="url(#bbburst-blur-4)"></use><use xlink:href="#bbburst-shape-4" width="16.25355809276459" opacity="0.8502083152817135" transform="matrix(0.772428844426078,0.635101314987297,-0.635101314987297,0.772428844426078,711.8620775156351,65.05234205642932)" fill="#ffa6d5"></use><use xlink:href="#bbburst-shape-1" width="40.95416832590661" opacity="0.21210961986810162" transform="matrix(1.247840843869092,0.0734386027377468,-0.0734386027377468,1.247840843869092,376.20830877271214,252.89960564148345)" fill="#2c2891" filter="url(#bbburst-blur-3)"></use><use xlink:href="#bbburst-shape-4" width="32.28521085642383" opacity="0.3702238503315507" transform="matrix(0.9925196673459101,-0.12208484726436744,0.12208484726436744,0.9925196673459101,611.88207639403,-56.10834004665958)" fill="#ffa6d5" filter="url(#bbburst-blur-2)"></use><use xlink:href="#bbburst-shape-6" width="35.21270398263062" opacity="0.3857579371221166" transform="matrix(0.9901817054702704,-0.13978623019448874,0.13978623019448874,0.9901817054702704,536.4865495366379,186.3093423126254)" fill="#00a19d" filter="url(#bbburst-blur-2)"></use><use xlink:href="#bbburst-shape-6" width="33.75426301146288" opacity="0.5129391321738979" transform="matrix(0.8830119496158235,-0.4693505053109695,0.4693505053109695,0.8830119496158235,325.8189381248324,232.30155283835876)" fill="#00a19d" filter="url(#bbburst-blur-2)"></use><use xlink:href="#bbburst-shape-4" width="29.294831890135853" opacity="0.34084558447728563" transform="matrix(0.9699730384612231,0.24321246813907937,-0.24321246813907937,0.9699730384612231,240.62436549027746,179.36243043291978)" fill="#00a19d" filter="url(#bbburst-blur-2)"></use><use xlink:href="#bbburst-shape-1" width="26.56305065280087" opacity="0.16701317064751708" transform="matrix(1.1956369167776786,-0.3646263337148956,0.3646263337148956,1.1956369167776786,604.5377569747873,6.408984088465502)" fill="#2c2891" filter="url(#bbburst-blur-3)"></use><use xlink:href="#bbburst-shape-10" width="27.183128747682176" opacity="0.475698339380318" transform="matrix(0.7389221563627028,-0.6737908034666943,0.6737908034666943,0.7389221563627028,-90.10081368026076,220.06906482086993)" fill="none" stroke="#ffa6d5" filter="url(#bbburst-blur-2)"></use><use xlink:href="#bbburst-shape-6" width="39.820494039652125" opacity="0.16085082088797675" transform="matrix(1.216340293376896,-0.288125477366731,0.288125477366731,1.216340293376896,4.3590568196543416,196.63569122372797)" fill="#ff5c58" filter="url(#bbburst-blur-3)"></use><use xlink:href="#bbburst-shape-1" width="12.680170266085094" opacity="0.827555068610738" transform="matrix(0.9883859408947091,0.15196457429835583,-0.15196457429835583,0.9883859408947091,384.99686399553457,38.17669571806931)" fill="#00a19d"></use><use xlink:href="#bbburst-shape-6" width="41.713771674235986" opacity="0.16900404099921373" transform="matrix(1.0779691194576337,-0.6328369280436577,0.6328369280436577,1.0779691194576337,-239.89488896463138,-102.48230236019958)" fill="#ff5c58" filter="url(#bbburst-blur-3)"></use><use xlink:href="#bbburst-shape-6" width="15.407357435194811" opacity="0.8515507531327876" transform="matrix(0.9749869375897183,0.22226216846198257,-0.22226216846198257,0.9749869375897183,425.8443802403605,-28.811914360608966)" fill="#00a19d"></use><use xlink:href="#bbburst-shape-10" width="22.755646819392403" opacity="0.7479448654884991" transform="matrix(0.9851771705257725,0.17153991568971078,-0.17153991568971078,0.9851771705257725,476.76418056434534,-107.78343173242507)" fill="none" stroke="#00a19d" filter="url(#bbburst-blur-1)"></use><use xlink:href="#bbburst-shape-1" width="40.554541995124985" opacity="0.3227390231931405" transform="matrix(1.2454280233218402,0.10681310183986605,-0.10681310183986605,1.2454280233218402,279.35380649687124,-371.9487855221523)" fill="#00a19d" filter="url(#bbburst-blur-3)"></use><use xlink:href="#bbburst-shape-4" width="21.528704739844063" opacity="0.6162202214446485" transform="matrix(0.9747739943337608,0.22319422028942734,-0.22319422028942734,0.9747739943337608,642.9212303613544,61.40435225116374)" fill="#2c2891" filter="url(#bbburst-blur-1)"></use><use xlink:href="#bbburst-shape-4" width="17.08357017162163" opacity="0.834262799366708" transform="matrix(0.996047579006087,-0.08882128323838201,0.08882128323838201,0.996047579006087,393.0200991804877,67.08022992216405)" fill="#2c2891"></use><use xlink:href="#bbburst-shape-10" width="21.806874619809378" opacity="0.6783375348946139" transform="matrix(0.939930543769234,0.341365746509037,-0.341365746509037,0.939930543769234,519.8179114590207,164.90871618504178)" fill="none" stroke="#00a19d" filter="url(#bbburst-blur-1)"></use><use xlink:href="#bbburst-shape-4" width="17.215472396187504" opacity="0.844443499420154" transform="matrix(0.9466060499581453,-0.3223925963520833,0.3223925963520833,0.9466060499581453,325.76267814230766,54.942302107442)" fill="#2c2891"></use><use xlink:href="#bbburst-shape-6" width="19.813185100128738" opacity="0.772872520745172" transform="matrix(0.9915698057443196,-0.12957360972116275,0.12957360972116275,0.9915698057443196,440.436312434129,9.577455795303422)" fill="#00a19d" filter="url(#bbburst-blur-1)"></use><use xlink:href="#bbburst-shape-8" width="40.71372847514605" opacity="0.08048797365279792" transform="matrix(1.5071194250613549,-0.8894329871343492,0.8894329871343492,1.5071194250613549,219.25246601135223,-543.7672140683346)" fill="none" stroke="#ffa6d5" filter="url(#bbburst-blur-4)"></use><use xlink:href="#bbburst-shape-4" width="14.501525368144193" opacity="0.9402543798734865" transform="matrix(0.9999996307233524,-0.0008593911558674856,0.0008593911558674856,0.9999996307233524,367.8448644501368,-10.91700553717726)" fill="#ffa6d5"></use><use xlink:href="#bbburst-shape-8" width="18.041739868505523" opacity="0.843037530995603" transform="matrix(0.9849838496056054,-0.17264650594820083,0.17264650594820083,0.9849838496056054,287.47443540846734,69.15245813229689)" fill="none" stroke="#ff5c58"></use><use xlink:href="#bbburst-shape-10" width="31.649544234302766" opacity="0.26152095958009425" transform="matrix(1.1225140085575445,0.5499657267431062,-0.5499657267431062,1.1225140085575445,726.9769630973503,-365.7184684806595)" fill="none" stroke="#ff5c58" filter="url(#bbburst-blur-3)"></use><use xlink:href="#bbburst-shape-10" width="34.72473938435623" opacity="0.36252051602391144" transform="matrix(0.8312777992341225,-0.5558571943408431,0.5558571943408431,0.8312777992341225,344.61828369917987,-145.09455605738083)" fill="none" stroke="#ffa6d5" filter="url(#bbburst-blur-2)"></use><use xlink:href="#bbburst-shape-4" width="16.104909317329582" opacity="0.743103811402396" transform="matrix(0.9981529997762535,0.060750218416615716,-0.060750218416615716,0.9981529997762535,453.86945550580964,109.57919613773663)" fill="#00a19d" filter="url(#bbburst-blur-1)"></use><use xlink:href="#bbburst-shape-4" width="18.75786395415816" opacity="0.8087455990711787" transform="matrix(0.901609864118193,-0.43255017388133543,0.43255017388133543,0.901609864118193,201.9159729102749,-41.01715497495093)" fill="#2c2891"></use><use xlink:href="#bbburst-shape-1" width="32.40264246755276" opacity="0.48685632137680845" transform="matrix(0.9413794570017399,0.33734954859182686,-0.33734954859182686,0.9413794570017399,486.14009971632356,-210.4447050145229)" fill="#2c2891" filter="url(#bbburst-blur-2)"></use><use xlink:href="#bbburst-shape-10" width="25.722629959599672" opacity="0.07488587632923271" transform="matrix(1.296547188272949,-1.1753575577591315,1.1753575577591315,1.296547188272949,-456.52255377101847,87.87593134206264)" fill="none" stroke="#ffbd9b" filter="url(#bbburst-blur-4)"></use><use xlink:href="#bbburst-shape-1" width="36.77004862259174" opacity="0.060985814270467675" transform="matrix(1.3873753710355192,-1.0666253230840037,1.0666253230840037,1.3873753710355192,176.41763521667394,220.1557181799477)" fill="#2c2891" filter="url(#bbburst-blur-4)"></use><use xlink:href="#bbburst-shape-1" width="35.35548726352557" opacity="0.2668511530449005" transform="matrix(1.0188233622440421,0.7242230019446672,-0.7242230019446672,1.0188233622440421,960.1870757257049,-180.2514611150708)" fill="#ffa6d5" filter="url(#bbburst-blur-3)"></use><use xlink:href="#bbburst-shape-8" width="28.896295445240867" opacity="0.5149252005497169" transform="matrix(0.9239995917370728,0.3823934550560754,-0.3823934550560754,0.9239995917370728,437.98670924847465,-168.31118276875458)" fill="none" stroke="#ff5c58" filter="url(#bbburst-blur-2)"></use><use xlink:href="#bbburst-shape-4" width="27.27071243780715" opacity="0.44799283650806554" transform="matrix(0.8927125909413977,-0.4506264860998484,0.4506264860998484,0.8927125909413977,-38.44495443436523,83.3147495203973)" fill="#2c2891" filter="url(#bbburst-blur-2)"></use><use xlink:href="#bbburst-shape-6" width="27.65656417817479" opacity="0.46802501827634546" transform="matrix(0.9687654284449052,0.247978919769321,-0.247978919769321,0.9687654284449052,381.2915370817732,224.43903939533948)" fill="#ffa6d5" filter="url(#bbburst-blur-2)"></use><use xlink:href="#bbburst-shape-6" width="38.176671985444806" opacity="0.04367968713287407" transform="matrix(1.7486935688402914,0.06760770885487302,-0.06760770885487302,1.7486935688402914,159.30411437713363,60.164655727857166)" fill="#2c2891" filter="url(#bbburst-blur-4)"></use><use xlink:href="#bbburst-shape-10" width="38.43894877418091" opacity="0.17561557384756776" transform="matrix(1.0020224811782596,-0.7472957561858385,0.7472957561858385,1.0020224811782596,-12.583210151258413,-345.205836288376)" fill="none" stroke="#2c2891" filter="url(#bbburst-blur-3)"></use><use xlink:href="#bbburst-shape-1" width="31.877200221172593" opacity="0.49951807029817474" transform="matrix(0.8851442842132098,-0.46531666220401413,0.46531666220401413,0.8851442842132098,424.5237253393735,68.05504783342928)" fill="#ff5c58" filter="url(#bbburst-blur-2)"></use><use xlink:href="#bbburst-shape-1" width="31.808946447085745" opacity="0.18447220686226518" transform="matrix(0.922066735553782,-0.843974487283349,0.843974487283349,0.922066735553782,96.14135378288802,-319.15293517109376)" fill="#00a19d" filter="url(#bbburst-blur-3)"></use><use xlink:href="#bbburst-shape-8" width="21.80435457430193" opacity="0.6518839168874686" transform="matrix(0.9810656646146111,0.19367540296664262,-0.19367540296664262,0.9810656646146111,541.1848392931746,-132.38916024411515)" fill="none" stroke="#2c2891" filter="url(#bbburst-blur-1)"></use><use xlink:href="#bbburst-shape-8" width="13.638209081566156" opacity="0.8838869473493971" transform="matrix(0.9965375845702034,0.08314350569337778,-0.08314350569337778,0.9965375845702034,374.6200332729006,7.342864526401854)" fill="none" stroke="#ffa6d5"></use><use xlink:href="#bbburst-shape-8" width="32.337880882902475" opacity="0.329951193440043" transform="matrix(1.2300813048459251,0.22226107051966154,-0.22226107051966154,1.2300813048459251,628.7814480874872,160.08898062500822)" fill="none" stroke="#ffa6d5" filter="url(#bbburst-blur-3)"></use><use xlink:href="#bbburst-shape-8" width="39.03660733528996" opacity="0.2642859346957679" transform="matrix(1.2493702858477993,-0.03967226790326032,0.03967226790326032,1.2493702858477993,656.0912154362961,48.63193169236138)" fill="none" stroke="#ffa6d5" filter="url(#bbburst-blur-3)"></use><use xlink:href="#bbburst-shape-10" width="29.877542477318904" opacity="0.4523897276459552" transform="matrix(0.958562072583467,-0.28488375349339945,0.28488375349339945,0.958562072583467,499.18305586561553,115.63988633944763)" fill="none" stroke="#ffa6d5" filter="url(#bbburst-blur-2)"></use><use xlink:href="#bbburst-shape-6" width="23.292530569692445" opacity="0.4669520636219179" transform="matrix(0.7879764819917643,-0.61570533847603,0.61570533847603,0.7879764819917643,221.55496368358627,319.152534630328)" fill="#2c2891" filter="url(#bbburst-blur-2)"></use><use xlink:href="#bbburst-shape-4" width="39.21269047377268" opacity="0.1861621966241489" transform="matrix(1.0145311420043925,-0.730223638280262,0.730223638280262,1.0145311420043925,223.23281860381087,348.90308572147194)" fill="#00a19d" filter="url(#bbburst-blur-3)"></use><use xlink:href="#bbburst-shape-10" width="24.38865779876867" opacity="0.5241045061274447" transform="matrix(0.9427715408473515,0.3334393824495101,-0.3334393824495101,0.9427715408473515,509.23595026087605,232.60473671394226)" fill="none" stroke="#00a19d" filter="url(#bbburst-blur-2)"></use><use xlink:href="#bbburst-shape-6" width="39.126386148881366" opacity="0.26357362669416895" transform="matrix(1.2006826866347955,0.3476508104628115,-0.3476508104628115,1.2006826866347955,361.8884898381582,206.52851351165174)" fill="#00a19d" filter="url(#bbburst-blur-3)"></use><use xlink:href="#bbburst-shape-6" width="27.15384004415555" opacity="0.5351740680107422" transform="matrix(0.8798633374991601,0.47522679567217074,-0.47522679567217074,0.8798633374991601,429.865925459638,189.1364777743512)" fill="#2c2891" filter="url(#bbburst-blur-2)"></use><use xlink:href="#bbburst-shape-6" width="19.99923432494495" opacity="0.740385690420132" transform="matrix(0.9857272574258592,-0.16835015285913435,0.16835015285913435,0.9857272574258592,405.86918238111207,89.54164710686331)" fill="#ffbd9b" filter="url(#bbburst-blur-1)"></use><use xlink:href="#bbburst-shape-6" width="26.891537948976442" opacity="0.669359671380215" transform="matrix(0.8473262974611583,-0.5310726368687853,0.5310726368687853,0.8473262974611583,133.39298023681167,-74.29341072220546)" fill="#ffbd9b" filter="url(#bbburst-blur-1)"></use><use xlink:href="#bbburst-shape-6" width="48.03084399631576" opacity="0.20666868108394687" transform="matrix(0.9345584788234584,-0.8301207440241349,0.8301207440241349,0.9345584788234584,-207.27808133233717,-205.97325608852307)" fill="#2c2891" filter="url(#bbburst-blur-3)"></use><use xlink:href="#bbburst-shape-10" width="30.448461110673513" opacity="0.6379071183004579" transform="matrix(0.9695027486025832,0.24508043669790616,-0.24508043669790616,0.9695027486025832,619.6839378763301,-80.64947587500342)" fill="none" stroke="#00a19d" filter="url(#bbburst-blur-1)"></use><use xlink:href="#bbburst-shape-1" width="40.2186388769107" opacity="0.42066932367791476" transform="matrix(0.8928469241869544,0.4503602668640906,-0.4503602668640906,0.8928469241869544,371.02945409673555,-143.4357133987076)" fill="#ff5c58" filter="url(#bbburst-blur-2)"></use><use xlink:href="#bbburst-shape-4" width="45.531881877189534" opacity="0.1674491450336848" transform="matrix(1.2498641191083797,0.0184305118060765,-0.0184305118060765,1.2498641191083797,638.1842454674601,-370.7605102335862)" fill="#ffbd9b" filter="url(#bbburst-blur-3)"></use><use xlink:href="#bbburst-shape-6" width="12.556876484369624" opacity="0.9205269096305286" transform="matrix(0.999220216001671,0.039483666668307264,-0.039483666668307264,0.999220216001671,445.0896939535352,-3.647363379201522)" fill="#ffbd9b"></use><use xlink:href="#bbburst-shape-6" width="13.581761080356708" opacity="0.7532051583361796" transform="matrix(0.7841051726103774,-0.6206279709178844,0.6206279709178844,0.7841051726103774,37.35769249953856,111.5087049570646)" fill="#00a19d" filter="url(#bbburst-blur-1)"></use><use xlink:href="#bbburst-shape-10" width="24.299946040505677" opacity="0.6009973321974819" transform="matrix(0.9144822721037603,0.4046259680346085,-0.4046259680346085,0.9144822721037603,380.50701638364035,86.38337554550566)" fill="none" stroke="#2c2891" filter="url(#bbburst-blur-1)"></use><use xlink:href="#bbburst-shape-10" width="31.152929304457885" opacity="0.567790099929271" transform="matrix(0.9448792214295214,-0.32741908452431623,0.32741908452431623,0.9448792214295214,82.10081140147068,-63.2427106520434)" fill="none" stroke="#00a19d" filter="url(#bbburst-blur-1)"></use><use xlink:href="#bbburst-shape-4" width="36.99413429185174" opacity="0.4210699000193041" transform="matrix(0.9999968277999526,-0.0025188072637540816,0.0025188072637540816,0.9999968277999526,135.52382885301574,-88.56838886522246)" fill="#ffa6d5" filter="url(#bbburst-blur-2)"></use><use xlink:href="#bbburst-shape-6" width="17.28517399101778" opacity="0.7720327396427702" transform="matrix(0.7752522417413894,-0.631651772478278,0.631651772478278,0.7752522417413894,69.32730430909328,169.10350641777177)" fill="#00a19d" filter="url(#bbburst-blur-1)"></use><use xlink:href="#bbburst-shape-8" width="19.780086972884984" opacity="0.7341271991488092" transform="matrix(0.8967207736576177,0.44259671721656896,-0.44259671721656896,0.8967207736576177,522.6266263795219,147.56975483885958)" fill="none" stroke="#ffa6d5" filter="url(#bbburst-blur-1)"></use><use xlink:href="#bbburst-shape-10" width="39.766499617095796" opacity="0.0790516250399177" transform="matrix(1.6181307909601068,0.6664478549345172,-0.6664478549345172,1.6181307909601068,414.63782324386096,-611.8604616032866)" fill="none" stroke="#2c2891" filter="url(#bbburst-blur-4)"></use><use xlink:href="#bbburst-shape-4" width="14.540012372583943" opacity="0.8811453090335711" transform="matrix(0.8440235110263279,-0.5363061745260725,0.5363061745260725,0.8440235110263279,179.15564683872276,119.78495992911621)" fill="#00a19d"></use><use xlink:href="#bbburst-shape-1" width="32.85081199574432" opacity="0.5430295784057622" transform="matrix(0.7601221157218951,-0.6497802468454007,0.6497802468454007,0.7601221157218951,325.7443874963372,51.545644002581184)" fill="#ffa6d5" filter="url(#bbburst-blur-2)"></use></svg>