<?xml version="1.0" encoding="UTF-8"?>
<svg id="_圖層_1" data-name="圖層 1" xmlns="http://www.w3.org/2000/svg" viewBox="0 0 425.2 425.2">
  <defs>
    <style>
      .cls-1 {
        fill: #040000;
        fill-rule: evenodd;
      }
    </style>
  </defs>
  <path class="cls-1" d="M259.8,197.31c-13.76-1.71-32.09-6.3-46.95-9.11-5.38-.32-5.94,6.61-1.36,7.21,6.43,2.28,26.22,9.98,42.82,15.61,74.14,25.13,93.43-64.42,32.45-81.92l-25.06-7.2c-11.74-3.36-19.24-4.89-31.08-5.12-30.55-2.73-63.91,24.29-43.54,51.87,6.29-15.01,25.29-17.84,39.81-15.97,9.4,1.21,38.04,7.87,45.35,13.18,18.59,8.02,11.25,34.39-12.42,31.45Z"/>
  <path class="cls-1" d="M169.15,128.35c13.76,1.71,32.09,6.3,46.95,9.11,5.38,.32,5.94-6.61,1.36-7.21-6.43-2.28-26.22-9.98-42.82-15.61-74.14-25.13-93.43,64.42-32.45,81.92l25.06,7.2c11.74,3.36,19.24,4.89,31.08,5.12,30.55,2.73,63.91-24.29,43.54-51.87-6.29,15.01-25.29,17.84-39.81,15.97-9.4-1.21-38.04-7.87-45.35-13.18-18.59-8.02-11.25-34.39,12.42-31.45Z"/>
  <path class="cls-1" d="M132.52,252.6c-.48,.85-1.09,1.62-1.84,2.33-.75,.71-1.63,1.32-2.64,1.85-1.01,.53-2.13,.94-3.38,1.23s-2.61,.44-4.09,.44c-2.11,0-3.99-.28-5.65-.85-1.66-.56-3.06-1.33-4.2-2.29-1.14-.96-2.02-2.07-2.62-3.34-.6-1.27-.91-2.62-.91-4.05s.3-2.78,.91-4.05c.6-1.27,1.48-2.38,2.62-3.34,1.14-.96,2.54-1.72,4.2-2.28,1.66-.56,3.54-.85,5.65-.85,1.43,0,2.75,.14,3.97,.41,1.22,.27,2.32,.66,3.31,1.16,.99,.5,1.86,1.08,2.61,1.75,.75,.67,1.37,1.4,1.87,2.19l-4.34,2.26c-.27-.47-.64-.91-1.11-1.33-.47-.41-1.03-.77-1.68-1.07-.65-.3-1.38-.54-2.2-.72-.81-.18-1.69-.27-2.62-.27-1.36,0-2.54,.17-3.56,.49-1.02,.33-1.86,.78-2.53,1.34-.67,.56-1.17,1.22-1.51,1.96-.34,.74-.51,1.53-.51,2.36s.17,1.58,.51,2.33c.34,.74,.84,1.4,1.51,1.96,.67,.56,1.51,1.02,2.53,1.35,1.02,.34,2.2,.51,3.56,.51,.99,0,1.9-.1,2.75-.3,.84-.2,1.59-.47,2.25-.8,.66-.34,1.23-.73,1.7-1.18,.48-.45,.83-.93,1.07-1.44l4.37,2.26h0Zm29.4-4.68c0-.85-.16-1.65-.48-2.41-.32-.76-.81-1.43-1.46-2.02-.65-.58-1.47-1.04-2.45-1.38-.98-.34-2.12-.51-3.42-.51s-2.44,.17-3.42,.51c-.98,.34-1.79,.8-2.45,1.38-.65,.58-1.13,1.26-1.46,2.02-.32,.76-.48,1.57-.48,2.41s.16,1.65,.48,2.41c.32,.76,.81,1.43,1.46,2.02,.65,.58,1.47,1.04,2.45,1.38s2.12,.51,3.42,.51,2.44-.17,3.42-.51c.98-.34,1.79-.8,2.45-1.38,.65-.58,1.13-1.26,1.46-2.02,.32-.76,.48-1.57,.48-2.41h0Zm5.08,0c0,1.43-.29,2.78-.88,4.05-.59,1.27-1.43,2.38-2.54,3.34-1.11,.96-2.46,1.72-4.05,2.29-1.59,.56-3.4,.85-5.41,.85s-3.82-.28-5.41-.85c-1.59-.56-2.94-1.33-4.05-2.29-1.11-.96-1.96-2.07-2.54-3.34-.59-1.27-.88-2.62-.88-4.05s.29-2.78,.88-4.05,1.43-2.38,2.54-3.34c1.11-.96,2.46-1.72,4.05-2.28,1.59-.56,3.4-.85,5.41-.85s3.82,.28,5.41,.85c1.59,.56,2.94,1.33,4.05,2.28,1.11,.96,1.96,2.07,2.54,3.34,.58,1.27,.88,2.62,.88,4.05h0Zm30.17,0c0-.79-.14-1.54-.43-2.24-.28-.71-.72-1.32-1.32-1.83-.59-.52-1.34-.93-2.24-1.23-.9-.3-1.96-.45-3.19-.45h-8.35v11.51h8.35c1.23,0,2.29-.15,3.19-.45,.9-.3,1.64-.71,2.24-1.23,.6-.52,1.04-1.13,1.32-1.83,.28-.71,.43-1.45,.43-2.24h0Zm5.08,0c0,1.35-.27,2.63-.81,3.84-.54,1.2-1.33,2.25-2.36,3.15-1.03,.89-2.3,1.6-3.8,2.12-1.5,.52-3.22,.78-5.16,.78h-13.3v-19.75h13.3c1.94,0,3.66,.26,5.16,.77,1.5,.52,2.77,1.22,3.8,2.12,1.03,.89,1.82,1.94,2.36,3.15,.54,1.2,.81,2.48,.81,3.84h0Zm9.67,9.87v-19.75h23.16v4.26h-18.32v3.55h16.13v3.84h-16.13v3.84h19.04v4.26h-23.87Zm49.48,0h-4.42l9.4-19.75h4.42l-9.4,19.75h0Zm21.29,0h-4.42l9.4-19.75h4.42l-9.4,19.75h0Zm-157.08,41.04v-6.69h-13.9v6.69h-4.84v-19.75h4.84v8.79h13.9v-8.79h4.84v19.75h-4.84Zm35.33-9.87c0-.85-.16-1.65-.48-2.41-.32-.76-.81-1.43-1.46-2.02-.65-.58-1.46-1.04-2.44-1.38-.98-.34-2.12-.51-3.42-.51s-2.44,.17-3.42,.51c-.98,.34-1.79,.8-2.44,1.38-.65,.58-1.14,1.26-1.46,2.02-.32,.76-.48,1.57-.48,2.41s.16,1.65,.48,2.41c.32,.76,.81,1.43,1.46,2.02,.65,.58,1.46,1.04,2.44,1.38,.98,.34,2.12,.51,3.42,.51s2.44-.17,3.42-.51c.98-.34,1.79-.8,2.44-1.38,.65-.58,1.13-1.26,1.46-2.02,.32-.76,.48-1.57,.48-2.41h0Zm5.08,0c0,1.43-.29,2.78-.88,4.05-.59,1.27-1.43,2.38-2.54,3.34-1.11,.96-2.46,1.72-4.05,2.29-1.59,.56-3.4,.85-5.41,.85s-3.82-.28-5.41-.85c-1.59-.56-2.94-1.33-4.05-2.29-1.11-.96-1.96-2.07-2.54-3.34-.59-1.27-.88-2.62-.88-4.05s.29-2.78,.88-4.05c.59-1.27,1.43-2.38,2.54-3.34,1.11-.96,2.46-1.72,4.05-2.28,1.59-.56,3.4-.85,5.41-.85s3.82,.28,5.41,.85c1.59,.56,2.94,1.33,4.05,2.28,1.11,.96,1.96,2.07,2.54,3.34,.59,1.27,.88,2.62,.88,4.05h0Zm28.55-3.39c0-.47-.08-.85-.25-1.14-.16-.29-.37-.52-.6-.68-.24-.16-.48-.27-.73-.32-.25-.06-.44-.08-.59-.08h-16.57v-4.26h17.28c.51,0,1.13,.09,1.85,.28,.72,.19,1.41,.52,2.07,1,.66,.48,1.22,1.14,1.68,1.97,.46,.84,.69,1.91,.69,3.23,0,.87-.11,1.63-.33,2.29s-.51,1.23-.87,1.71c-.36,.48-.76,.88-1.21,1.2-.45,.32-.9,.57-1.36,.76l3.35,7.31h-5.16l-3.08-6.74h-10.08v6.74h-4.84v-11h16.57c.11,0,.28-.03,.52-.1,.24-.07,.48-.18,.73-.35,.25-.17,.46-.4,.65-.69,.18-.29,.27-.66,.27-1.11h0Zm15.06,13.26v-19.75h4.84v19.75h-4.84Zm15.33,0v-4.26l16.4-11.23h-16.4v-4.26h23.57v4.26l-16.4,11.23h16.4v4.26h-23.57Zm53.8-9.87c0-.85-.16-1.65-.48-2.41-.32-.76-.81-1.43-1.46-2.02-.65-.58-1.47-1.04-2.45-1.38-.98-.34-2.12-.51-3.42-.51s-2.44,.17-3.42,.51c-.98,.34-1.79,.8-2.45,1.38-.65,.58-1.13,1.26-1.46,2.02-.32,.76-.48,1.57-.48,2.41s.16,1.65,.48,2.41c.32,.76,.81,1.43,1.46,2.02,.65,.58,1.47,1.04,2.45,1.38s2.12,.51,3.42,.51,2.44-.17,3.42-.51c.98-.34,1.8-.8,2.45-1.38,.65-.58,1.13-1.26,1.46-2.02,.32-.76,.48-1.57,.48-2.41h0Zm5.08,0c0,1.43-.29,2.78-.88,4.05-.59,1.27-1.43,2.38-2.54,3.34-1.11,.96-2.46,1.72-4.05,2.29-1.59,.56-3.4,.85-5.41,.85s-3.82-.28-5.41-.85c-1.59-.56-2.94-1.33-4.05-2.29-1.11-.96-1.96-2.07-2.54-3.34-.59-1.27-.88-2.62-.88-4.05s.29-2.78,.88-4.05c.59-1.27,1.43-2.38,2.54-3.34,1.11-.96,2.46-1.72,4.05-2.28,1.59-.56,3.4-.85,5.41-.85s3.82,.28,5.41,.85c1.59,.56,2.94,1.33,4.05,2.28,1.11,.96,1.96,2.07,2.54,3.34,.59,1.27,.88,2.62,.88,4.05Z"/>
  <polygon class="cls-1" points="310.83 279.08 315.67 279.08 315.67 298.82 310.83 298.82 310.83 294.9 296.93 285.03 296.93 298.82 292.1 298.82 292.1 279.08 296.93 279.08 310.83 288.94 310.83 279.08"/>
</svg>