<?xml version="1.0" encoding="UTF-8"?>
<svg id="_圖層_1" data-name="圖層 1" xmlns="http://www.w3.org/2000/svg" viewBox="0 0 388.22 306.15">
  <defs>
    <style>
      .cls-1 {
        fill: #040000;
        fill-rule: evenodd;
      }
    </style>
  </defs>
  <path class="cls-1" d="M267.09,208.6c-22.15-2.75-51.66-10.16-75.6-14.68-8.67-.52-9.56,10.64-2.19,11.61,10.35,3.67,42.21,16.07,68.94,25.14,119.36,40.47,150.44-103.7,52.26-131.9l-40.35-11.59c-18.89-5.41-30.98-7.88-50.04-8.24-49.18-4.4-102.9,39.1-70.12,83.51,10.13-24.17,40.73-28.72,64.1-25.71,15.14,1.95,61.24,12.68,73.02,21.22,29.93,12.92,18.1,55.37-20.01,50.63Z"/>
  <path class="cls-1" d="M121.13,97.55c22.15,2.75,51.66,10.16,75.6,14.68,8.66,.52,9.56-10.64,2.19-11.61-10.36-3.67-42.21-16.07-68.94-25.14C10.63,35.01-20.44,179.18,77.73,207.38l40.35,11.59c18.89,5.41,30.98,7.88,50.04,8.24,49.18,4.4,102.9-39.1,70.12-83.51-10.13,24.17-40.73,28.72-64.1,25.71-15.14-1.95-61.24-12.68-73.02-21.22-29.93-12.92-18.1-55.37,20.01-50.63Z"/>
</svg>